<svg width="96" height="20" viewBox="0 0 96 20" fill="none" xmlns="http://www.w3.org/2000/svg">
<path d="M5.56738 10.0004C5.56738 7.55964 7.54572 5.58087 9.98654 5.58087C12.4274 5.58087 14.4053 7.55964 14.4053 10.0004C14.4053 12.4407 12.4274 14.4195 9.98654 14.4195C7.54572 14.4195 5.56738 12.4407 5.56738 10.0004Z" fill="#6EC72D"/>
<path d="M13.0511 4.40264C13.0511 3.00407 14.1851 1.87009 15.5837 1.87009C16.9828 1.87009 18.1172 3.00407 18.1172 4.40264C18.1172 5.80165 16.9828 6.93563 15.5837 6.93563C14.1851 6.93563 13.0511 5.80165 13.0511 4.40264ZM0 10.0005C0 4.50202 4.45407 0.044435 9.95041 0.0377197V3.63799C6.44183 3.64426 3.59991 6.49019 3.59991 10.0005C3.59991 13.5143 6.44856 16.3625 9.96205 16.3625C13.4549 16.3625 16.3247 13.5412 16.3247 9.9763L19.9245 9.97845C19.9245 15.5024 15.4646 19.9622 9.96205 19.9622C4.45991 19.9622 0 15.5024 0 10.0004" fill="#00674C"/>
<path d="M45.8796 13.1556C46.8024 13.2639 47.8051 12.964 48.4854 12.4112C49.2641 11.7642 49.9639 10.4289 49.9639 8.97928C49.9639 7.37817 48.9142 7.18756 48.5243 7.18756C47.9606 7.18756 47.5329 7.47347 47.1247 7.74032L45.8796 13.1556ZM47.4552 5.85331C47.9606 5.51021 48.7965 4.93738 50.0611 4.93738C52.005 4.93738 53.3085 6.36695 53.3085 8.78867C53.3085 10.162 52.8225 11.7822 51.8106 12.984C49.8861 15.2904 47.4552 15.2713 45.3935 15.2713L44.2865 19.8289L44.1515 19.9242C43.7033 19.9242 43.2757 19.9041 42.8286 19.9041C42.1677 19.9041 41.5845 19.9433 40.8652 19.9623L40.767 19.8289C40.767 19.8289 41.4525 17.8074 42.3048 14.3333C43.2 10.6877 44.0369 6.4171 44.1105 5.54733L44.2467 5.4139L47.5718 4.88121L47.6894 5.01363L47.4552 5.85331ZM40.4191 15.0617L40.2636 15.2142C39.6405 15.3295 38.91 15.4238 38.513 15.4238C37.0448 15.4238 34.8901 15.2061 35.8028 11.5746C36.4176 9.11872 36.8607 7.28286 36.8607 7.28286L35.4989 7.32098L35.3822 7.1685L35.947 5.24236L36.0831 5.14806H37.3661L37.9298 2.68721L38.0659 2.55479C39.5249 2.23075 39.9126 2.13445 41.255 1.75323L41.3716 1.8676L40.5163 5.18618L42.4991 5.14806L42.5777 5.28048C42.3044 6.08103 42.2267 6.29171 41.974 7.18756L41.8185 7.32098L40.0301 7.28286C40.0301 7.28286 39.6668 8.76258 39.1584 10.8221C38.6089 13.0503 38.8974 12.9359 39.4479 13.1486C39.9185 13.3311 40.5355 13.0984 40.8854 12.984L41.002 13.0793L40.4189 15.0617H40.4191ZM29.5505 6.93977C28.6358 6.93977 27.6014 7.39623 27.0039 10.1731C26.3399 13.2629 27.6638 13.4606 28.3063 13.4606C28.8895 13.4606 30.1316 13.1486 30.7485 10.1901C31.1813 8.12154 30.8385 6.93977 29.5505 6.93977ZM34.0911 10.1901C33.2552 14.866 30.2881 15.4619 27.7764 15.4619C25.2973 15.4619 23.0116 13.7876 23.6583 10.1671C24.1637 7.33704 25.8774 4.71869 30.0436 4.91833C32.9493 5.05777 34.6589 7.011 34.0911 10.1901Z" fill="#00674C"/>
<path d="M91.5283 9.43268L94.5414 15.0576L94.4247 15.2101L92.267 15.2673L92.1115 15.152C91.607 13.8127 89.4084 9.60426 89.4084 9.60426C88.8446 12.026 88.728 12.5978 88.241 15.1138L88.106 15.2292L86.1415 15.2673L86.0638 15.152C86.0638 15.152 87.1013 10.9245 87.9985 7.01099C88.419 5.18116 89.0717 2.28392 89.3306 0.528323L89.4657 0.413958L91.5856 0.0708632L91.7032 0.204289C91.3114 1.52149 89.4657 9.33741 89.4657 9.33741C90.8602 8.13959 93.1806 5.75298 93.4917 5.42895L93.7055 5.31458H95.9421L96.0002 5.48613C95.4477 5.91349 94.4246 6.82039 94.0553 7.14442L91.5281 9.43271L91.5283 9.43268ZM84.0974 15.1188L83.9428 15.2332L81.959 15.2903L81.8813 15.1579C82.1667 13.8738 83.3638 9.57308 83.3791 8.23582C83.3914 7.09217 82.6598 6.71096 81.7452 6.71096C80.54 6.71096 79.7419 7.30184 79.1588 7.72218C78.4395 10.9244 78.2062 11.9346 77.5842 15.1188L77.4471 15.2331L75.4652 15.2903L75.367 15.1579C75.367 15.1579 75.9574 12.8234 76.4904 10.3967C76.9079 8.49661 77.2506 6.93162 77.4082 5.62445L77.5453 5.49103C78.4589 5.37666 78.6728 5.33854 79.6068 5.14793L79.7041 5.28035L79.4319 6.25246C80.19 5.75788 81.162 5.08975 82.7755 5.08975C83.417 5.08975 85.5175 5.2623 85.5175 7.56865C85.5175 8.94805 84.2877 13.7724 84.0974 15.1187V15.1188ZM73.0302 6.74912C72.7376 6.74912 72.447 6.7301 72.1544 6.7301C71.5129 6.7301 70.2493 6.76822 69.1014 7.53165C67.0603 8.90302 67.0213 11.3629 67.0213 11.4592C67.0213 12.3741 67.5268 13.8418 69.2958 13.8418C69.8217 13.8418 70.6893 13.7214 71.6295 12.9068L73.0302 6.74916V6.74912ZM74.4687 9.17084C73.7884 12.1072 73.6522 12.8315 73.2635 15.1007L73.1264 15.2332L71.2991 15.2713L71.2018 15.1379L71.3379 14.3764C71.0075 14.6423 70.1522 15.3475 68.4988 15.3475C66.5149 15.3475 64.9015 13.9752 64.9015 11.5916C64.9015 10.0858 65.6401 8.44553 66.4576 7.49249C68.2655 5.41386 70.7741 5.29949 72.5636 5.29949L75.2463 5.31956L75.3435 5.47104L74.4687 9.17084ZM55.857 13.7464C56.9569 13.7966 58.5796 13.7655 59.8431 12.9268C61.2817 11.9537 61.9631 10.2573 61.9631 9.03641C61.9631 7.30188 60.8929 6.63475 59.6488 6.63475C58.6563 6.63475 57.9565 7.05409 57.3344 7.4353C57.3344 7.4353 55.9778 13.2789 55.857 13.7464ZM53.4844 15.1379C53.6144 14.56 54.4523 11.1722 55.3097 7.36207C56.0422 4.09465 56.5528 2.05615 56.7319 0.533296L56.8874 0.398867L59.0073 0.0377197L59.1044 0.171141L58.5601 2.28789L57.6649 5.94856C58.4824 5.51017 59.259 5.08982 60.5041 5.08982C62.4286 5.08982 64.0431 6.3669 64.0431 8.77056C64.0431 9.74266 63.7321 11.5725 62.4286 13.0412C60.679 15.0054 58.5213 15.1379 56.0126 15.2332H54.9434L53.5816 15.2522L53.4844 15.1378V15.1379Z" fill="#6EC72D"/>
</svg>
