<svg width="160" height="120" viewBox="0 0 160 120" fill="none" xmlns="http://www.w3.org/2000/svg">
<path fill-rule="evenodd" clip-rule="evenodd" d="M70 106C96.5097 106 118 84.5097 118 58C118 31.4903 96.5097 10 70 10C43.4903 10 22 31.4903 22 58C22 68.6423 25.4634 78.4756 31.3245 86.4344C31.4978 86.6697 31.5628 86.968 31.4994 87.2532L28.7833 99.4758C28.6147 100.235 29.3383 100.887 30.0757 100.641L41.2032 96.9323C41.5105 96.8298 41.8479 96.8831 42.1114 97.0715C49.972 102.692 59.5997 106 70 106Z" fill="#EEF7EA"/>
<path d="M41.2032 96.9323L41.8357 98.8296L41.2032 96.9323ZM42.1114 97.0715L40.9481 98.6984L42.1114 97.0715ZM28.7833 99.4758L26.8309 99.042L28.7833 99.4758ZM30.0757 100.641L30.7082 102.539L30.0757 100.641ZM31.3245 86.4344L29.7141 87.6203L31.3245 86.4344ZM31.4994 87.2532L33.4518 87.6871L31.4994 87.2532ZM116 58C116 83.4051 95.4051 104 70 104V108C97.6142 108 120 85.6142 120 58H116ZM70 12C95.4051 12 116 32.5949 116 58H120C120 30.3858 97.6142 8 70 8V12ZM24 58C24 32.5949 44.5949 12 70 12V8C42.3858 8 20 30.3858 20 58H24ZM32.935 85.2484C27.3183 77.6216 24 68.2012 24 58H20C20 69.0833 23.6085 79.3296 29.7141 87.6203L32.935 85.2484ZM30.7357 99.9097L33.4518 87.6871L29.547 86.8194L26.8309 99.042L30.7357 99.9097ZM40.5708 95.0349L29.4432 98.7441L30.7082 102.539L41.8357 98.8296L40.5708 95.0349ZM70 104C60.0305 104 50.8072 100.831 43.2747 95.4446L40.9481 98.6984C49.1368 104.554 59.1689 108 70 108V104ZM41.8357 98.8296C41.5247 98.9333 41.196 98.8756 40.9481 98.6984L43.2747 95.4446C42.4999 94.8906 41.4964 94.7264 40.5708 95.0349L41.8357 98.8296ZM26.8309 99.042C26.3251 101.318 28.4959 103.276 30.7082 102.539L29.4432 98.7441C30.1807 98.4983 30.9043 99.1509 30.7357 99.9097L26.8309 99.042ZM29.7141 87.6203C29.5508 87.3986 29.4829 87.1079 29.547 86.8194L33.4518 87.6871C33.6427 86.828 33.4448 85.9407 32.935 85.2484L29.7141 87.6203Z" fill="#6AAC45"/>
<path d="M60.3999 67.6C60.9332 70.8 63.5999 77.2 69.9999 77.2C76.3999 77.2 79.0666 70.8 79.5999 67.6" stroke="#6AAC45" stroke-width="4" stroke-linecap="round"/>
<g filter="url(#filter0_f_22_858)">
<ellipse cx="100.4" cy="63.6001" rx="4.8" ry="2.4" fill="#6AAC45"/>
</g>
<g filter="url(#filter1_f_22_858)">
<ellipse cx="39.5998" cy="63.6001" rx="4.8" ry="2.4" fill="#6AAC45"/>
</g>
<path d="M41.2002 51.6C41.2002 51.6 42.8002 42 49.2002 42C55.6002 42 57.2002 51.6 57.2002 51.6" stroke="#6AAC45" stroke-width="4" stroke-linecap="round"/>
<path d="M82.7998 51.6C82.7998 51.6 84.3998 42 90.7998 42C97.1998 42 98.7998 51.6 98.7998 51.6" stroke="#6AAC45" stroke-width="4" stroke-linecap="round"/>
<path d="M128.5 88.2093L136.385 98.0306C136.49 98.1615 136.397 98.3558 136.229 98.3558L131.52 98.3558C131.36 98.3558 131.265 98.5338 131.354 98.6667L138.146 108.856" stroke="#6AAC45" stroke-width="2" stroke-linecap="round"/>
<g clip-path="url(#clip0_22_858)">
<path d="M140.517 27.7035C141.024 27.9203 141.484 28.3369 141.888 28.7031C141.905 28.7186 141.922 28.7339 141.939 28.7491C141.944 28.638 141.947 28.5281 141.948 28.4201M140.517 27.7035L137.766 29.8112C137.732 30.6743 138.023 31.5627 138.641 32.0569C139.06 32.3984 139.641 32.5604 140.391 32.3992M140.517 27.7035C139.815 27.41 139.25 27.4667 138.803 27.7303L140.517 27.7035ZM141.948 28.4201C141.981 28.4504 142.014 28.4803 142.047 28.5096C142.066 28.5276 142.086 28.5453 142.105 28.5628L142.106 28.5634C142.133 28.5854 142.163 28.6093 142.194 28.6351C142.208 28.2105 142.185 27.8034 142.127 27.4599M141.948 28.4201C141.57 28.0794 141.117 27.6885 140.615 27.4737L140.615 27.4737L140.613 27.4729C139.85 27.1537 139.2 27.2054 138.676 27.5151L138.676 27.5152C137.95 27.9451 137.548 28.8823 137.516 29.8019M141.948 28.4201C141.949 28.086 141.926 27.7709 141.881 27.5009M142.127 27.4599C141.518 23.7932 137.682 20.6054 134.659 18.7093C134.552 18.6393 134.515 18.4976 134.584 18.3877C134.654 18.2779 134.792 18.2482 134.899 18.3181M142.127 27.4599L141.881 27.5009M142.127 27.4599L141.881 27.5009C141.881 27.5009 141.881 27.5009 141.881 27.5009M134.899 18.3181C138.024 20.2761 141.958 23.5961 142.592 27.3821C142.678 27.9532 142.695 28.6735 142.597 29.387M134.899 18.3181L135.032 18.1063C135.032 18.1067 135.033 18.107 135.033 18.1074M134.899 18.3181L135.036 18.109C135.035 18.1084 135.034 18.1079 135.033 18.1074M142.597 29.387C142.897 29.7146 143.183 30.0561 143.473 30.4048C144.162 31.2527 144.746 32.225 145.256 33.186C145.933 34.473 146.361 35.8303 146.551 37.2717C146.561 37.4039 146.473 37.5202 146.348 37.5354C146.224 37.5505 146.106 37.4609 146.079 37.3383C145.899 35.9506 145.48 34.6485 144.831 33.409C144.352 32.465 143.768 31.5299 143.111 30.6988M142.597 29.387L142.782 29.2182C142.808 29.2468 142.834 29.2756 142.86 29.3044M142.597 29.387L142.845 29.421C142.85 29.3821 142.855 29.3433 142.86 29.3044M143.111 30.6988C142.968 30.5295 142.826 30.3619 142.684 30.1958C142.658 30.2917 142.63 30.387 142.599 30.4817M143.111 30.6988L142.92 30.8601C142.919 30.8591 142.918 30.858 142.917 30.857M143.111 30.6988L142.915 30.8538C142.915 30.8549 142.916 30.8559 142.917 30.857M142.599 30.4817C142.535 30.4062 142.471 30.3311 142.407 30.2562C142.344 30.4702 142.27 30.6762 142.171 30.8763M142.599 30.4817C142.705 30.6059 142.811 30.731 142.917 30.857M142.599 30.4817C142.543 30.6516 142.478 30.8196 142.396 30.9851M142.171 30.8763C141.812 31.6356 141.241 32.2212 140.391 32.3992M142.171 30.8763L142.397 30.9833C142.397 30.9839 142.397 30.9845 142.396 30.9851M142.171 30.8763L142.395 30.987C142.396 30.9864 142.396 30.9858 142.396 30.9851M140.391 32.3992L140.443 32.6436C140.443 32.6437 140.443 32.6437 140.442 32.6438M140.391 32.3992L140.442 32.6439C140.442 32.6438 140.442 32.6438 140.442 32.6438M137.516 29.8019L138.485 32.2522C138.485 32.2519 138.484 32.2517 138.484 32.2514M137.516 29.8019C137.481 30.715 137.785 31.6919 138.484 32.2514M137.516 29.8019L138.484 32.2514M141.881 27.5009C141.588 25.7371 140.513 24.0674 139.117 22.5925C137.723 21.1203 136.027 19.8621 134.526 18.9211L134.522 18.9185L134.522 18.9185C134.311 18.78 134.224 18.4889 134.373 18.2541L134.373 18.2538C134.516 18.028 134.809 17.9624 135.033 18.1074M135.033 18.1074C136.608 19.0938 138.39 20.4259 139.862 21.9935C141.332 23.5591 142.51 25.3791 142.839 27.3408L142.84 27.3449L142.84 27.3449C142.924 27.9078 142.944 28.6054 142.86 29.3044M142.86 29.3044C143.136 29.6103 143.4 29.9265 143.665 30.2449L143.667 30.2471L143.667 30.2471C144.37 31.1129 144.963 32.1009 145.477 33.0687L145.477 33.0697C146.168 34.383 146.606 35.7687 146.799 37.2391L146.8 37.2531L146.8 37.2531C146.819 37.5019 146.651 37.7502 146.379 37.7836L146.378 37.7836C146.118 37.8151 145.887 37.6317 145.835 37.391L145.833 37.3809L145.832 37.3705C145.655 36.0131 145.245 34.7391 144.609 33.525L144.608 33.522C144.136 32.5924 143.562 31.6729 142.917 30.857M142.396 30.9851C142.014 31.7915 141.39 32.4452 140.442 32.6438M140.442 32.6438C139.628 32.8188 138.968 32.6454 138.484 32.2514M141.473 29.2941L141.473 29.2941L141.478 29.2977C141.604 29.4009 141.719 29.5098 141.825 29.6247C141.763 29.9552 141.665 30.2754 141.522 30.5676L141.522 30.5675L141.519 30.5731C141.256 31.1449 140.843 31.5716 140.233 31.7026C139.723 31.8097 139.357 31.7031 139.094 31.4933L139.094 31.4933L139.091 31.4909C138.662 31.1592 138.46 30.5106 138.489 29.8366L138.49 29.8366L138.49 29.8321C138.506 29.1751 138.757 28.5911 139.181 28.3408C139.426 28.1961 139.769 28.1599 140.243 28.3594C140.451 28.4525 140.655 28.5952 140.862 28.7636C140.992 28.8699 141.113 28.9771 141.236 29.0856C141.313 29.1545 141.391 29.2239 141.473 29.2941Z" fill="#6AAC45" stroke="#6AAC45" stroke-width="0.5"/>
<path d="M135.022 18.7399C135.09 18.7592 135.153 18.7781 135.216 18.7973C135.268 18.8131 135.321 18.8291 135.378 18.8456C135.498 18.8803 135.628 18.9137 135.746 18.9251C136.871 19.045 138.272 19.182 139.44 18.9306C139.701 18.8784 139.866 18.6149 139.808 18.3568C139.753 18.1104 139.513 17.9232 139.229 17.9893C138.238 18.1984 137.025 18.0806 135.933 17.9745C135.903 17.9716 135.873 17.9687 135.843 17.9658C135.77 17.9556 135.664 17.9277 135.532 17.8877C135.482 17.8728 135.427 17.8555 135.37 17.8378C135.286 17.8114 135.197 17.7838 135.118 17.7609L135.118 17.7608L135.111 17.759C134.874 17.6976 134.607 17.6518 134.369 17.7092C134.123 17.7588 133.939 18.0103 133.95 18.3445L133.95 18.3445L133.951 18.3507C133.963 18.5595 134.057 18.8769 134.138 19.125C134.18 19.255 134.222 19.376 134.256 19.4691L134.297 19.5851L134.31 19.6217C134.314 19.6322 134.315 19.6359 134.315 19.6357L134.315 19.6364C134.567 20.4597 134.735 21.1058 134.409 21.832L134.409 21.8319L134.405 21.8419C134.309 22.0843 134.429 22.3441 134.622 22.46L134.636 22.4684L134.651 22.475C134.888 22.5788 135.186 22.4752 135.289 22.2248C135.741 21.2045 135.536 20.2814 135.241 19.3436L135.233 19.3174L135.219 19.2937C135.22 19.2958 135.22 19.2943 135.217 19.2882C135.213 19.2779 135.203 19.2549 135.187 19.2153C135.165 19.1607 135.138 19.0878 135.108 19.0049C135.079 18.9218 135.049 18.8308 135.022 18.7399Z" fill="#6AAC45" stroke="#6AAC45" stroke-width="0.5"/>
</g>
<circle cx="8" cy="105.209" r="3" stroke="#6AAC45" stroke-width="2"/>
<defs>
<filter id="filter0_f_22_858" x="89.6001" y="55.2001" width="21.6001" height="16.8" filterUnits="userSpaceOnUse" color-interpolation-filters="sRGB">
<feFlood flood-opacity="0" result="BackgroundImageFix"/>
<feBlend mode="normal" in="SourceGraphic" in2="BackgroundImageFix" result="shape"/>
<feGaussianBlur stdDeviation="3" result="effect1_foregroundBlur_22_858"/>
</filter>
<filter id="filter1_f_22_858" x="28.7998" y="55.2001" width="21.6001" height="16.8" filterUnits="userSpaceOnUse" color-interpolation-filters="sRGB">
<feFlood flood-opacity="0" result="BackgroundImageFix"/>
<feBlend mode="normal" in="SourceGraphic" in2="BackgroundImageFix" result="shape"/>
<feGaussianBlur stdDeviation="3" result="effect1_foregroundBlur_22_858"/>
</filter>
<clipPath id="clip0_22_858">
<rect width="23" height="23" fill="white" transform="translate(124.791 23.5) rotate(-30)"/>
</clipPath>
</defs>
</svg>
