<svg width="117" height="34" viewBox="0 0 117 34" fill="none" xmlns="http://www.w3.org/2000/svg">
<path fill-rule="evenodd" clip-rule="evenodd" d="M117 17V18.9384C117 18.9724 116.972 19 116.938 19C116.907 19 116.881 19.0236 116.877 19.0546C115.863 27.4746 108.693 34 100 34C93.7867 34 88.3519 30.6667 85.3864 25.6909C83.3088 22.205 80.0573 19 75.9992 19H2C0.89543 19 0 18.1046 0 17C0 15.8954 0.895431 15 2 15H75.9992C80.0573 15 83.3088 11.795 85.3864 8.30914C88.3519 3.33327 93.7867 0 100 0C108.693 0 115.863 6.52541 116.877 14.9454C116.881 14.9764 116.907 15 116.938 15C116.972 15 117 15.0276 117 15.0616V17Z" fill="#6AAC45"/>
</svg>
