<svg width="17" height="10" viewBox="0 0 17 10" fill="none" xmlns="http://www.w3.org/2000/svg">
<path d="M5.13823 0.195262C5.39858 0.455612 5.39858 0.877722 5.13823 1.13807L1.60964 4.66667L5.13823 8.19526C5.39858 8.45561 5.39858 8.87772 5.13823 9.13807C4.87788 9.39842 4.45577 9.39842 4.19542 9.13807L0.195425 5.13807C-0.0649245 4.87772 -0.0649244 4.45561 0.195425 4.19526L4.19542 0.195262C4.45577 -0.0650874 4.87788 -0.0650874 5.13823 0.195262Z" fill="white"/>
<path d="M11.5288 9.13811C11.2684 8.87776 11.2684 8.45565 11.5288 8.1953L15.0574 4.66671L11.5288 1.13811C11.2684 0.877762 11.2684 0.455652 11.5288 0.195303C11.7891 -0.0650473 12.2112 -0.0650473 12.4716 0.195303L16.4716 4.1953C16.7319 4.45565 16.7319 4.87776 16.4716 5.13811L12.4716 9.13811C12.2112 9.39846 11.7891 9.39846 11.5288 9.13811Z" fill="white"/>
</svg>
